<?xml version="1.0" encoding="utf-8"?>
<!-- Generator: Adobe Illustrator 14.0.0, SVG Export Plug-In . SVG Version: 6.00 Build 43363)  -->
<!DOCTYPE svg PUBLIC "-//W3C//DTD SVG 1.1//EN" "http://www.w3.org/Graphics/SVG/1.1/DTD/svg11.dtd">
<svg version="1.1" xmlns="http://www.w3.org/2000/svg" xmlns:xlink="http://www.w3.org/1999/xlink" x="0px" y="0px" width="52px"
	 height="52px" viewBox="96 224 52 52" enable-background="new 96 224 52 52" xml:space="preserve">
<g id="svg2" inkscape:export-filename="/home/bbense/Desktop/qwired_test3.png" inkscape:output_extension="org.inkscape.output.svg.inkscape" inkscape:export-ydpi="155.67999" xmlns:svg="http://www.w3.org/2000/svg" inkscape:version="0.46" xmlns:sodipodi="http://sodipodi.sourceforge.net/DTD/sodipodi-0.dtd" sodipodi:version="0.32" xmlns:inkscape="http://www.inkscape.org/namespaces/inkscape" xmlns:dc="http://purl.org/dc/elements/1.1/" xmlns:cc="http://creativecommons.org/ns#" sodipodi:docname="QwiredLogo.svg" xmlns:rdf="http://www.w3.org/1999/02/22-rdf-syntax-ns#" sodipodi:docbase="/home/bbense/Desktop/QwiredSF/qwired-client/trunk/contrib" inkscape:export-xdpi="155.67999">
	
		<radialGradient id="Shadow_1_" cx="97.478" cy="267.4033" r="9.447" gradientTransform="matrix(0.9837 0 0 0.2789 25.951 197.4891)" gradientUnits="userSpaceOnUse">
		<stop  offset="0" style="stop-color:#000000"/>
		<stop  offset="1" style="stop-color:#000000;stop-opacity:0"/>
	</radialGradient>
	<path id="Shadow" fill="url(#Shadow_1_)" d="M134.66,272.07c0,4.633-5.736,8.383-12.818,8.383c-7.081,0-12.819-3.75-12.819-8.383
		c0-4.617,5.738-8.367,12.819-8.367C128.923,263.703,134.66,267.453,134.66,272.07z"/>
	
		<g id="icon_x5F_main" transform="translate(-150.72603,-295.27252)" sodipodi:insensitive="true" inkscape:groupmode="layer" inkscape:label="Ebene 1">
		<g id="g5005">
			<g id="g4992">
				
					<g id="outer_ring" inkscape:export-filename="/home/bbense/Desktop/qwired_test2.png" sodipodi:ry="190" sodipodi:rx="190" sodipodi:cx="379" sodipodi:cy="502.36218" sodipodi:type="arc" inkscape:export-ydpi="155.67999" inkscape:export-xdpi="155.67999">
					<path fill="#2E3436" d="M272.726,521.351c12.682,0,23,10.317,23,23s-10.318,23-23,23s-23-10.317-23-23
						S260.044,521.351,272.726,521.351 M272.726,520.351c-13.255,0-24,10.744-24,24c0,13.254,10.745,24,24,24s24-10.746,24-24
						C296.726,531.095,285.981,520.351,272.726,520.351L272.726,520.351z"/>
				</g>
				
					<g id="inner_ring" inkscape:export-filename="/home/bbense/Desktop/qwired_test2.png" sodipodi:ry="190" sodipodi:rx="190" sodipodi:cx="379" sodipodi:cy="502.36218" sodipodi:type="arc" inkscape:export-ydpi="155.67999" inkscape:export-xdpi="155.67999">
					<linearGradient id="SVGID_1_" gradientUnits="userSpaceOnUse" x1="272.726" y1="521.8506" x2="272.726" y2="566.8506">
						<stop  offset="0" style="stop-color:#BABDB6"/>
						<stop  offset="1" style="stop-color:#888A85"/>
					</linearGradient>
					<path fill="url(#SVGID_1_)" d="M272.726,566.851c-12.407,0-22.5-10.094-22.5-22.5s10.093-22.5,22.5-22.5s22.5,10.094,22.5,22.5
						S285.133,566.851,272.726,566.851L272.726,566.851z"/>
					<path fill="#BABDB6" d="M272.726,522.351c12.131,0,22,9.869,22,22s-9.869,22-22,22s-22-9.869-22-22
						S260.595,522.351,272.726,522.351 M272.726,521.351c-12.703,0-23,10.297-23,23s10.297,23,23,23c12.703,0,23-10.297,23-23
						S285.429,521.351,272.726,521.351L272.726,521.351z"/>
				</g>
			</g>
		</g>
	</g>
	<g id="Q_Man_Kopie">
	</g>
	<g>
		<defs>
			
				<path id="inner_ring_1_" inkscape:export-filename="/home/bbense/Desktop/qwired_test2.png" sodipodi:ry="190" sodipodi:rx="190" sodipodi:cx="379" sodipodi:cy="502.36218" sodipodi:type="arc" inkscape:export-ydpi="155.67999" inkscape:export-xdpi="155.67999" d="
				M144,249c0,12.15-9.85,22-22,22c-12.15,0-22-9.85-22-22s9.85-22,22-22C134.15,227,144,236.85,144,249z"/>
		</defs>
		<clipPath id="inner_ring_2_">
			<use xlink:href="#inner_ring_1_"  overflow="visible"/>
		</clipPath>
		<g id="Guy" clip-path="url(#inner_ring_2_)">
			<g>
				<linearGradient id="SVGID_2_" gradientUnits="userSpaceOnUse" x1="118.7163" y1="240.376" x2="118.7163" y2="274.2695">
					<stop  offset="0" style="stop-color:#FFCD82"/>
					<stop  offset="0.1337" style="stop-color:#FDCB81"/>
					<stop  offset="0.2125" style="stop-color:#F4C47F"/>
					<stop  offset="0.277" style="stop-color:#E6B87A"/>
					<stop  offset="0.3339" style="stop-color:#D2A874"/>
					<stop  offset="0.3851" style="stop-color:#B8926C"/>
					<stop  offset="0.3939" style="stop-color:#B38E6A"/>
					<stop  offset="0.4571" style="stop-color:#B6906B"/>
					<stop  offset="0.4981" style="stop-color:#BE976E"/>
					<stop  offset="0.5327" style="stop-color:#CDA472"/>
					<stop  offset="0.5636" style="stop-color:#E2B579"/>
					<stop  offset="0.5921" style="stop-color:#FDCB81"/>
					<stop  offset="0.5939" style="stop-color:#FFCD82"/>
					<stop  offset="0.6029" style="stop-color:#FCCA81"/>
					<stop  offset="0.7281" style="stop-color:#D0A670"/>
					<stop  offset="0.8404" style="stop-color:#B08D63"/>
					<stop  offset="0.9349" style="stop-color:#9D7D5C"/>
					<stop  offset="1" style="stop-color:#967759"/>
				</linearGradient>
				<path fill="url(#SVGID_2_)" d="M109.466,274.27c-0.831,0-1.507-0.676-1.507-1.506v-18.502c0-0.83,0.676-1.506,1.507-1.506h5.746
					c0.224,0,0.42-0.148,0.481-0.363s-0.028-0.444-0.218-0.562c-1.845-1.141-2.947-3.108-2.947-5.264c0-3.413,2.776-6.19,6.189-6.19
					c3.412,0,6.188,2.777,6.188,6.19c0,2.155-1.102,4.124-2.946,5.264c-0.19,0.118-0.279,0.348-0.218,0.562s0.257,0.363,0.481,0.363
					h5.746c0.831,0,1.506,0.676,1.506,1.506v18.502c0,0.83-0.675,1.506-1.506,1.506H109.466z"/>
				<path fill="#2E3436" d="M118.717,240.876c3.137,0,5.688,2.553,5.688,5.69c0,1.981-1.013,3.79-2.709,4.839
					c-0.38,0.235-0.558,0.694-0.436,1.124s0.515,0.727,0.962,0.727h5.746c0.555,0,1.006,0.451,1.006,1.006v18.502
					c0,0.555-0.451,1.006-1.006,1.006h-18.502c-0.555,0-1.007-0.451-1.007-1.006v-18.502c0-0.555,0.452-1.006,1.007-1.006h5.746
					c0.447,0,0.84-0.297,0.962-0.727s-0.056-0.889-0.436-1.124c-1.697-1.049-2.71-2.858-2.71-4.839
					C113.027,243.429,115.58,240.876,118.717,240.876 M118.717,239.876c-3.694,0-6.689,2.995-6.689,6.69
					c0,2.406,1.276,4.51,3.184,5.689h-5.746c-1.108,0-2.007,0.898-2.007,2.006v18.502c0,1.107,0.898,2.006,2.007,2.006h18.502
					c1.107,0,2.006-0.898,2.006-2.006v-18.502c0-1.107-0.898-2.006-2.006-2.006h-5.746c1.908-1.18,3.184-3.283,3.184-5.689
					C125.405,242.871,122.411,239.876,118.717,239.876L118.717,239.876z"/>
			</g>
			<g>
				<linearGradient id="SVGID_3_" gradientUnits="userSpaceOnUse" x1="119.0806" y1="241.1045" x2="119.0806" y2="244.2256">
					<stop  offset="0" style="stop-color:#C17D11"/>
					<stop  offset="1" style="stop-color:#8F5902"/>
				</linearGradient>
				<path fill="url(#SVGID_3_)" d="M119.733,244.226c-0.973,0-1.63-0.21-2.068-0.66c-0.511-0.526-1.162-0.794-1.936-0.794
					c-0.344,0-0.706,0.053-1.083,0.157c1.026-1.154,2.493-1.824,4.062-1.824c2.023,0,3.864,1.119,4.805,2.886
					c-0.118-0.007-0.242-0.011-0.373-0.011c-0.546,0-1.137,0.062-1.708,0.123C120.863,244.163,120.274,244.226,119.733,244.226
					L119.733,244.226z"/>
				<path fill="#8F5902" d="M118.709,241.354c1.781,0,3.415,0.91,4.362,2.375c-0.539,0.005-1.111,0.066-1.665,0.125
					c-0.563,0.06-1.146,0.121-1.673,0.121c-0.913,0-1.496-0.18-1.888-0.585c-0.56-0.576-1.272-0.869-2.115-0.869
					c-0.104,0-0.209,0.005-0.315,0.014C116.331,241.78,117.488,241.354,118.709,241.354 M118.709,240.854
					c-2.001,0-3.759,1.035-4.774,2.598c0.478-0.213,1.128-0.431,1.795-0.431c0.611,0,1.237,0.183,1.756,0.718
					c0.56,0.577,1.36,0.736,2.247,0.736c1.101,0,2.335-0.246,3.408-0.246c0.277,0,0.542,0.017,0.793,0.058
					C123.059,242.268,121.05,240.854,118.709,240.854L118.709,240.854z"/>
			</g>
			<linearGradient id="SVGID_4_" gradientUnits="userSpaceOnUse" x1="118.706" y1="252.2559" x2="118.706" y2="272.8633">
				<stop  offset="0" style="stop-color:#729FCF"/>
				<stop  offset="0.2851" style="stop-color:#5886BC"/>
				<stop  offset="0.7531" style="stop-color:#3261A1"/>
				<stop  offset="1" style="stop-color:#245396"/>
			</linearGradient>
			<path fill="url(#SVGID_4_)" stroke="#204A87" stroke-linecap="round" stroke-linejoin="round" d="M127.968,252.256h-2.746h-1.028
				c-0.146,0.762-3.637,3.365-5.477,3.365s-5.332-2.604-5.477-3.365h-1.028h-2.746c-1.108,0-2.007,0.898-2.007,2.006l-0.021,6.891
				h5.021l0.009,11.682l12.515,0.029l-0.01-11.711h5v-6.891C129.974,253.154,129.075,252.256,127.968,252.256z"/>
			<path id="Q" opacity="0.3" fill="#FFFFFF" d="M122.131,266.37h-1.203l-0.498-0.51c-0.528,0.338-1.117,0.51-1.766,0.51
				c-0.842,0-1.588-0.287-2.239-0.854c-0.709-0.629-1.063-1.43-1.063-2.404c0-0.955,0.335-1.752,1.006-2.391
				c0.652-0.619,1.422-0.928,2.309-0.928c0.804,0,1.526,0.271,2.164,0.814c0.767,0.65,1.15,1.5,1.15,2.549
				c0,0.822-0.303,1.549-0.909,2.189L122.131,266.37z M119.498,263.741l0.92,0.916c0.405-0.422,0.608-0.941,0.608-1.564
				c0-0.68-0.226-1.252-0.678-1.711c-0.452-0.459-1.013-0.688-1.683-0.688c-0.679,0-1.238,0.229-1.676,0.688
				c-0.441,0.457-0.661,1.037-0.661,1.736c0,0.684,0.227,1.242,0.682,1.678c0.473,0.449,1.015,0.674,1.622,0.674
				c0.414,0,0.788-0.096,1.121-0.285l-1.49-1.443H119.498z"/>
			<line fill="none" stroke="#204A87" stroke-linecap="round" x1="112.459" y1="259.264" x2="112.459" y2="275"/>
			<line fill="none" stroke="#204A87" stroke-linecap="round" x1="124.974" y1="259.264" x2="124.974" y2="275"/>
		</g>
	</g>
	<ellipse id="top_reflection" opacity="0.15" fill="#FFFFFF" cx="121" cy="238.384" rx="14.062" ry="10.258"/>
	<g id="stars">
		<radialGradient id="SVGID_5_" cx="132.6831" cy="242.7754" r="4.0007" gradientUnits="userSpaceOnUse">
			<stop  offset="0" style="stop-color:#FFFFFF;stop-opacity:0.7"/>
			<stop  offset="0.9274" style="stop-color:#FFFFFF;stop-opacity:0.0508"/>
			<stop  offset="1" style="stop-color:#FFFFFF;stop-opacity:0"/>
		</radialGradient>
		<circle fill="url(#SVGID_5_)" cx="132.683" cy="242.774" r="4"/>
		<radialGradient id="SVGID_6_" cx="121.7978" cy="234.3438" r="2.9717" gradientUnits="userSpaceOnUse">
			<stop  offset="0" style="stop-color:#FFFFFF;stop-opacity:0.7"/>
			<stop  offset="0.9274" style="stop-color:#FFFFFF;stop-opacity:0.0508"/>
			<stop  offset="1" style="stop-color:#FFFFFF;stop-opacity:0"/>
		</radialGradient>
		<circle fill="url(#SVGID_6_)" cx="121.798" cy="234.344" r="2.972"/>
	</g>
	<path opacity="0.5" fill="none" stroke="#000000" stroke-width="0.5" stroke-linecap="round" stroke-linejoin="round" d="
		M116.815,252.793c0,0,1.065,0.365,1.889,0.365c0.825,0,1.968-0.339,1.968-0.339"/>
</g>
<g id="Ebene_6">
	<path fill="none" stroke="#000000" stroke-linecap="round" stroke-linejoin="round" d="M121.841,247.598"/>
	<path fill="none" stroke="#000000" stroke-linecap="round" stroke-linejoin="round" d="M115.269,248.693"/>
</g>
<g id="Ebene_4" display="none">
</g>
</svg>
