<?xml version="1.0" encoding="UTF-8" standalone="no"?>
<!-- Created with Inkscape (http://www.inkscape.org/) -->
<svg
   xmlns:dc="http://purl.org/dc/elements/1.1/"
   xmlns:cc="http://creativecommons.org/ns#"
   xmlns:rdf="http://www.w3.org/1999/02/22-rdf-syntax-ns#"
   xmlns:svg="http://www.w3.org/2000/svg"
   xmlns="http://www.w3.org/2000/svg"
   xmlns:xlink="http://www.w3.org/1999/xlink"
   xmlns:sodipodi="http://sodipodi.sourceforge.net/DTD/sodipodi-0.dtd"
   xmlns:inkscape="http://www.inkscape.org/namespaces/inkscape"
   width="370"
   height="370"
   id="svg2"
   sodipodi:version="0.32"
   inkscape:version="0.46"
   sodipodi:docbase="/home/bbense/Desktop/QwiredSF/qwired-client/trunk/contrib"
   sodipodi:docname="QwiredLogo.svg"
   inkscape:output_extension="org.inkscape.output.svg.inkscape"
   version="1.0"
   inkscape:export-filename="/home/bbense/Desktop/qwired_test3.png"
   inkscape:export-xdpi="155.67999"
   inkscape:export-ydpi="155.67999">
  <sodipodi:namedview
     id="base"
     pagecolor="#ffffff"
     bordercolor="#666666"
     borderopacity="1.0"
     inkscape:pageopacity="0.0"
     inkscape:pageshadow="2"
     inkscape:zoom="2.8525858"
     inkscape:cx="208.61774"
     inkscape:cy="94.015283"
     inkscape:document-units="px"
     inkscape:current-layer="layer2"
     showgrid="false"
     showguides="true"
     inkscape:guide-bbox="true"
     inkscape:window-width="1600"
     inkscape:window-height="970"
     inkscape:window-x="78"
     inkscape:window-y="159"
     width="744.09449px"
     height="1052.3622px">
    <sodipodi:guide
       orientation="vertical"
       position="197.78122"
       id="guide4725" />
  </sodipodi:namedview>
  <defs
     id="defs4">
    <inkscape:perspective
       sodipodi:type="inkscape:persp3d"
       inkscape:vp_x="0 : 185 : 1"
       inkscape:vp_y="0 : 1000 : 0"
       inkscape:vp_z="370 : 185 : 1"
       inkscape:persp3d-origin="185 : 123.33333 : 1"
       id="perspective4986" />
    <linearGradient
       inkscape:collect="always"
       id="linearGradient5137">
      <stop
         style="stop-color:#ffffff;stop-opacity:1;"
         offset="0"
         id="stop5139" />
      <stop
         style="stop-color:#ffffff;stop-opacity:0;"
         offset="1"
         id="stop5141" />
    </linearGradient>
    <linearGradient
       inkscape:collect="always"
       id="linearGradient4913">
      <stop
         style="stop-color:#ffffff;stop-opacity:1"
         offset="0"
         id="stop4915" />
      <stop
         style="stop-color:#ffffff;stop-opacity:0;"
         offset="1"
         id="stop4917" />
    </linearGradient>
    <linearGradient
       inkscape:collect="always"
       id="linearGradient4903">
      <stop
         style="stop-color:#ffffff;stop-opacity:1"
         offset="0"
         id="stop4905" />
      <stop
         style="stop-color:#ffffff;stop-opacity:0"
         offset="1"
         id="stop4907" />
    </linearGradient>
    <marker
       inkscape:stockid="Dot_l"
       orient="auto"
       refY="0"
       refX="0"
       id="Dot_l"
       style="overflow:visible">
      <path
         id="path3405"
         d="M -2.5,-1 C -2.5,1.76 -4.74,4 -7.5,4 C -10.26,4 -12.5,1.76 -12.5,-1 C -12.5,-3.76 -10.26,-6 -7.5,-6 C -4.74,-6 -2.5,-3.76 -2.5,-1 z "
         style="fill-rule:evenodd;stroke:#000000;stroke-width:1pt;marker-start:none;marker-end:none"
         transform="matrix(0.8,0,0,0.8,5.92,0.8)" />
    </marker>
    <marker
       inkscape:stockid="Arrow1Lstart"
       orient="auto"
       refY="0"
       refX="0"
       id="Arrow1Lstart"
       style="overflow:visible">
      <path
         id="path3343"
         d="M 0,0 L 5,-5 L -12.5,0 L 5,5 L 0,0 z "
         style="fill-rule:evenodd;stroke:#000000;stroke-width:1pt;marker-start:none"
         transform="matrix(0.8,0,0,0.8,10,0)" />
    </marker>
    <linearGradient
       id="linearGradient4640"
       inkscape:collect="always">
      <stop
         offset="0"
         style="stop-color:#ffffff;stop-opacity:1;"
         id="stop4642" />
      <stop
         offset="1"
         style="stop-color:#ffffff;stop-opacity:0;"
         id="stop4644" />
    </linearGradient>
    <linearGradient
       id="linearGradient4225">
      <stop
         offset="0"
         style="stop-color:#cf0000;stop-opacity:1"
         id="stop4227" />
      <stop
         offset="1"
         style="stop-color:#320000;stop-opacity:1"
         id="stop4229" />
    </linearGradient>
    <linearGradient
       id="linearGradient4181"
       inkscape:collect="always">
      <stop
         offset="0"
         style="stop-color:#ffffff;stop-opacity:1"
         id="stop4183" />
      <stop
         offset="1"
         style="stop-color:#ffffff;stop-opacity:0"
         id="stop4185" />
    </linearGradient>
    <linearGradient
       x1="389"
       gradientTransform="translate(6,19)"
       y1="432.36218"
       x2="384"
       inkscape:collect="always"
       gradientUnits="userSpaceOnUse"
       y2="257.36218"
       xlink:href="#linearGradient4181"
       id="linearGradient4215" />
    <linearGradient
       x1="360.11444"
       y1="385.04291"
       x2="360.11444"
       inkscape:collect="always"
       gradientUnits="userSpaceOnUse"
       y2="650.15222"
       xlink:href="#linearGradient4225"
       id="linearGradient4223" />
    <linearGradient
       x1="389"
       gradientTransform="matrix(0.7160306,0,0,1,0.7271,-44.85327)"
       y1="432.36218"
       x2="384"
       inkscape:collect="always"
       gradientUnits="userSpaceOnUse"
       y2="257.36218"
       xlink:href="#linearGradient4181"
       id="linearGradient4401" />
    <linearGradient
       x1="389"
       gradientTransform="matrix(0.696927,0,0,0.9733201,14.64103,-25.972764)"
       y1="432.36218"
       x2="384"
       inkscape:collect="always"
       gradientUnits="userSpaceOnUse"
       y2="257.36218"
       xlink:href="#linearGradient4181"
       id="linearGradient4406" />
    <linearGradient
       x1="348"
       y1="515.36218"
       x2="348"
       inkscape:collect="always"
       gradientUnits="userSpaceOnUse"
       y2="100.27665"
       xlink:href="#linearGradient4640"
       id="linearGradient4646" />
    <linearGradient
       inkscape:collect="always"
       xlink:href="#linearGradient4640"
       id="linearGradient3301"
       gradientUnits="userSpaceOnUse"
       gradientTransform="matrix(0.8349351,0,0,0.8349351,-95.505611,-216.44176)"
       spreadMethod="pad"
       x1="348"
       y1="515.36218"
       x2="348"
       y2="100.27665" />
    <clipPath
       clipPathUnits="userSpaceOnUse"
       id="clipPath4871">
      <path
         style="opacity:0.63003666;fill:#ffffff;fill-opacity:1;stroke-width:20;stroke-linejoin:miter;stroke-miterlimit:4;stroke-dasharray:none;display:inline"
         d="M 180.96875,28.75 C 121.01427,29.53687 64.055051,68.467372 41.074831,123.79415 C 19.407832,174.27198 26.589048,235.85972 60.266588,279.22964 C 91.095868,320.35037 142.91454,344.69472 194.40317,341.07656 C 247.1151,338.16278 297.0271,306.81431 322.03125,260.21875 C 347.99926,213.75687 347.89775,153.50679 320.65625,107.4375 C 295.42852,62.434968 246.43721,31.689038 194.7833,28.998529 C 190.18738,28.685065 185.57299,28.614625 180.96875,28.75 z "
         id="path4873" />
    </clipPath>
    <clipPath
       clipPathUnits="userSpaceOnUse"
       id="clipPath4879">
      <path
         style="opacity:0.63003666;fill:#ffffff;fill-opacity:1;stroke-width:20;stroke-linejoin:miter;stroke-miterlimit:4;stroke-dasharray:none;display:inline"
         d="M 180.96875,28.75 C 121.01427,29.53687 64.055051,68.467372 41.074831,123.79415 C 19.407832,174.27198 26.589048,235.85972 60.266588,279.22964 C 91.095868,320.35037 142.91454,344.69472 194.40317,341.07656 C 247.1151,338.16278 297.0271,306.81431 322.03125,260.21875 C 347.99926,213.75687 347.89775,153.50679 320.65625,107.4375 C 295.42852,62.434968 246.43721,31.689038 194.7833,28.998529 C 190.18738,28.685065 185.57299,28.614625 180.96875,28.75 z "
         id="path4881" />
    </clipPath>
    <linearGradient
       inkscape:collect="always"
       xlink:href="#linearGradient4903"
       id="linearGradient4909"
       x1="68.089653"
       y1="50.710285"
       x2="225.91576"
       y2="189.18839"
       gradientUnits="userSpaceOnUse" />
    <linearGradient
       inkscape:collect="always"
       xlink:href="#linearGradient4913"
       id="linearGradient4919"
       x1="115.07378"
       y1="65.936432"
       x2="194.86946"
       y2="189.40977"
       gradientUnits="userSpaceOnUse" />
    <clipPath
       clipPathUnits="userSpaceOnUse"
       id="clipPath5117">
      <path
         style="opacity:0.63003666;fill:#ffffff;fill-opacity:1;stroke-width:20;stroke-linejoin:miter;stroke-miterlimit:4;stroke-dasharray:none;display:inline"
         d="M 187.41094,29.585265 C 116.32685,29.818227 51.137689,87.864586 41.848439,157.99152 C 32.21219,221.33813 67.443463,288.80374 125.72344,315.71027 C 181.14519,342.47994 253.04835,331.75532 296.31719,287.27277 C 336.40684,248.1317 352.4929,185.6375 333.62596,132.44909 C 316.70016,81.123205 270.82993,40.762733 217.36516,31.903176 C 207.52035,30.140958 197.45935,29.329295 187.41094,29.585265 z "
         id="path5119" />
    </clipPath>
    <clipPath
       clipPathUnits="userSpaceOnUse"
       id="clipPath5121">
      <path
         style="opacity:0.63003666;fill:#ffffff;fill-opacity:1;stroke-width:20;stroke-linejoin:miter;stroke-miterlimit:4;stroke-dasharray:none;display:inline"
         d="M 181.53125,34.625 C 110.44716,34.857962 45.258,92.904321 35.96875,163.03125 C 26.332501,226.37786 61.563774,293.84347 119.84375,320.75 C 175.2655,347.51967 247.16866,336.79505 290.4375,292.3125 C 330.52715,253.17143 346.61321,190.67723 327.74627,137.48882 C 310.82047,86.16294 264.95024,45.802468 211.48547,36.942911 C 201.64066,35.180693 191.57966,34.36903 181.53125,34.625 z "
         id="path5123" />
    </clipPath>
    <clipPath
       clipPathUnits="userSpaceOnUse"
       id="clipPath5125">
      <path
         style="opacity:0.63003666;fill:#ffffff;fill-opacity:1;stroke-width:20;stroke-linejoin:miter;stroke-miterlimit:4;stroke-dasharray:none;display:inline"
         d="M 181.53125,34.625 C 110.44716,34.857962 45.258,92.904321 35.96875,163.03125 C 26.332501,226.37786 61.563774,293.84347 119.84375,320.75 C 175.2655,347.51967 247.16866,336.79505 290.4375,292.3125 C 330.52715,253.17143 346.61321,190.67723 327.74627,137.48882 C 310.82047,86.16294 264.95024,45.802468 211.48547,36.942911 C 201.64066,35.180693 191.57966,34.36903 181.53125,34.625 z "
         id="path5127" />
    </clipPath>
    <linearGradient
       inkscape:collect="always"
       xlink:href="#linearGradient5137"
       id="linearGradient5143"
       x1="57.116905"
       y1="206.20886"
       x2="173.87059"
       y2="280.96481"
       gradientUnits="userSpaceOnUse" />
    <linearGradient
       inkscape:collect="always"
       xlink:href="#linearGradient5137"
       id="linearGradient5147"
       gradientUnits="userSpaceOnUse"
       x1="57.116905"
       y1="206.20886"
       x2="173.87059"
       y2="280.96481" />
    <linearGradient
       inkscape:collect="always"
       xlink:href="#linearGradient5137"
       id="linearGradient5151"
       gradientUnits="userSpaceOnUse"
       x1="57.116905"
       y1="206.20886"
       x2="173.87059"
       y2="280.96481" />
    <clipPath
       clipPathUnits="userSpaceOnUse"
       id="clipPath5154">
      <path
         id="path5156"
         d="M 181.53125,34.625 C 110.44716,34.857962 45.258,92.904321 35.96875,163.03125 C 26.332501,226.37786 61.563774,293.84347 119.84375,320.75 C 175.2655,347.51967 247.16866,336.79505 290.4375,292.3125 C 330.52715,253.17143 346.61321,190.67723 327.74627,137.48882 C 310.82047,86.16294 264.95024,45.802468 211.48547,36.942911 C 201.64066,35.180693 191.57966,34.36903 181.53125,34.625 z "
         style="opacity:0.63003666;fill:#ffffff;fill-opacity:1;stroke-width:20;stroke-linejoin:miter;stroke-miterlimit:4;stroke-dasharray:none;display:inline" />
    </clipPath>
    <clipPath
       clipPathUnits="userSpaceOnUse"
       id="clipPath5158">
      <path
         id="path5160"
         d="M 187.41094,29.585265 C 116.32685,29.818227 51.137689,87.864586 41.848439,157.99152 C 32.21219,221.33813 67.443463,288.80374 125.72344,315.71027 C 181.14519,342.47994 253.04835,331.75532 296.31719,287.27277 C 336.40684,248.1317 352.4929,185.6375 333.62596,132.44909 C 316.70016,81.123205 270.82993,40.762733 217.36516,31.903176 C 207.52035,30.140958 197.45935,29.329295 187.41094,29.585265 z "
         style="opacity:0.63003666;fill:#ffffff;fill-opacity:1;stroke-width:20;stroke-linejoin:miter;stroke-miterlimit:4;stroke-dasharray:none;display:inline" />
    </clipPath>
    <clipPath
       clipPathUnits="userSpaceOnUse"
       id="clipPath5162">
      <path
         id="path5164"
         d="M 181.53125,34.625 C 110.44716,34.857962 45.258,92.904321 35.96875,163.03125 C 26.332501,226.37786 61.563774,293.84347 119.84375,320.75 C 175.2655,347.51967 247.16866,336.79505 290.4375,292.3125 C 330.52715,253.17143 346.61321,190.67723 327.74627,137.48882 C 310.82047,86.16294 264.95024,45.802468 211.48547,36.942911 C 201.64066,35.180693 191.57966,34.36903 181.53125,34.625 z "
         style="opacity:0.63003666;fill:#ffffff;fill-opacity:1;stroke-width:20;stroke-linejoin:miter;stroke-miterlimit:4;stroke-dasharray:none;display:inline" />
    </clipPath>
    <clipPath
       clipPathUnits="userSpaceOnUse"
       id="clipPath5166">
      <path
         id="path5168"
         d="M 181.53125,34.625 C 110.44716,34.857962 45.258,92.904321 35.96875,163.03125 C 26.332501,226.37786 61.563774,293.84347 119.84375,320.75 C 175.2655,347.51967 247.16866,336.79505 290.4375,292.3125 C 330.52715,253.17143 346.61321,190.67723 327.74627,137.48882 C 310.82047,86.16294 264.95024,45.802468 211.48547,36.942911 C 201.64066,35.180693 191.57966,34.36903 181.53125,34.625 z "
         style="opacity:0.63003666;fill:#ffffff;fill-opacity:1;stroke-width:20;stroke-linejoin:miter;stroke-miterlimit:4;stroke-dasharray:none;display:inline" />
    </clipPath>
    <clipPath
       clipPathUnits="userSpaceOnUse"
       id="clipPath5170">
      <path
         id="path5172"
         d="M 181.53125,34.625 C 110.44716,34.857962 45.258,92.904321 35.96875,163.03125 C 26.332501,226.37786 61.563774,293.84347 119.84375,320.75 C 175.2655,347.51967 247.16866,336.79505 290.4375,292.3125 C 330.52715,253.17143 346.61321,190.67723 327.74627,137.48882 C 310.82047,86.16294 264.95024,45.802468 211.48547,36.942911 C 201.64066,35.180693 191.57966,34.36903 181.53125,34.625 z "
         style="opacity:0.63003666;fill:#ffffff;fill-opacity:1;stroke-width:20;stroke-linejoin:miter;stroke-miterlimit:4;stroke-dasharray:none;display:inline" />
    </clipPath>
  </defs>
  <metadata
     id="metadata7">
    <rdf:RDF>
      <cc:Work
         rdf:about="">
        <dc:format>image/svg+xml</dc:format>
        <dc:type
           rdf:resource="http://purl.org/dc/dcmitype/StillImage" />
      </cc:Work>
    </rdf:RDF>
  </metadata>
  <g
     inkscape:label="Ebene 1"
     id="layer1"
     inkscape:groupmode="layer"
     transform="translate(-150.72603,-295.27252)"
     style="display:inline"
     sodipodi:insensitive="true">
    <g
       id="g5005">
      <g
         id="g4992">
        <path
           style="opacity:1;fill:#000000;fill-opacity:1;stroke-width:20;stroke-linejoin:miter;stroke-miterlimit:4;stroke-dasharray:none"
           sodipodi:cx="379"
           sodipodi:cy="502.36218"
           sodipodi:type="arc"
           transform="matrix(0.9736842,0,0,0.9736842,-33.300285,-8.8695992)"
           d="M 569,502.36218 A 190,190 0 1 1 189,502.36218 A 190,190 0 1 1 569,502.36218 z"
           sodipodi:rx="190"
           id="path4408"
           sodipodi:ry="190"
           inkscape:export-filename="/home/bbense/Desktop/qwired_test2.png"
           inkscape:export-xdpi="155.67999"
           inkscape:export-ydpi="155.67999" />
        <path
           style="opacity:1;fill:url(#linearGradient4223);fill-opacity:1;stroke:none;stroke-width:20;stroke-linejoin:miter;stroke-miterlimit:4;stroke-dasharray:none;stroke-opacity:1"
           sodipodi:cx="379"
           sodipodi:cy="502.36218"
           sodipodi:type="arc"
           transform="matrix(0.8421053,0,0,0.8421053,16.568118,57.230664)"
           d="M 569,502.36218 A 190,190 0 1 1 189,502.36218 A 190,190 0 1 1 569,502.36218 z"
           sodipodi:rx="190"
           id="path4149"
           sodipodi:ry="190"
           inkscape:export-filename="/home/bbense/Desktop/qwired_test2.png"
           inkscape:export-xdpi="155.67999"
           inkscape:export-ydpi="155.67999" />
        <path
           style="fill:none;fill-rule:evenodd;stroke:#000000;stroke-width:1px;stroke-linecap:butt;stroke-linejoin:miter;stroke-opacity:1"
           d="M 335.72603,480.08007 C 335.72603,480.41341 335.72603,480.74674 335.72603,480.08007 z"
           id="path4167"
           inkscape:export-filename="/home/bbense/Desktop/qwired_test2.png"
           inkscape:export-xdpi="155.67999"
           inkscape:export-ydpi="155.67999" />
      </g>
    </g>
  </g>
  <g
     inkscape:groupmode="layer"
     id="layer3"
     inkscape:label="Shine"
     transform="translate(6.4e-6,-7.3837402e-6)"
     style="display:inline"
     sodipodi:insensitive="true">
    <path
       style="opacity:0.3992674;fill:url(#linearGradient3301);fill-opacity:1;fill-rule:evenodd;stroke:none;stroke-width:1px;stroke-linecap:butt;stroke-linejoin:miter;stroke-opacity:1;display:inline"
       d="M 184.79776,34.273606 C 103.40626,34.273606 37.066122,99.071577 34.587717,179.86542 C 75.663084,170.70241 133.62629,164.24444 190.04219,179.63059 C 236.40575,192.2752 289.2723,187.48548 334.92953,177.25624 C 331.12369,97.677677 265.31347,34.273606 184.79776,34.273606 z"
       id="path4630"
       inkscape:export-filename="/home/bbense/Desktop/qwired_test2.png"
       inkscape:export-xdpi="155.67999"
       inkscape:export-ydpi="155.67999" />
  </g>
  <g
     inkscape:groupmode="layer"
     id="layer2"
     inkscape:label="Arrows"
     style="display:inline"
     transform="translate(6.4e-6,-7.3837402e-6)">
    <path
       style="opacity:1;fill:#ffffff;fill-opacity:1;fill-rule:evenodd;stroke:#000000;stroke-width:4;stroke-linecap:round;stroke-linejoin:miter;stroke-miterlimit:4;stroke-dasharray:none;stroke-opacity:1"
       d="M 93.020174,168.61555 C 74.805168,168.61555 60.025431,183.39528 60.025431,201.61029 C 60.025431,213.25024 66.07249,223.48666 75.184046,229.36157 C 53.868176,237.85658 36.603763,265.52691 35.648929,337.70314 C 35.648929,339.49051 37.451874,340.93847 39.707027,340.93847 L 146.33332,340.93847 C 148.58848,340.93847 150.40537,339.49051 150.40537,337.70314 C 150.40537,274.34931 131.88623,240.8158 109.72673,230.07279 C 119.47432,224.33594 126.02886,213.73137 126.02886,201.61029 C 126.02886,183.39528 111.23518,168.61555 93.020174,168.61555 z"
       id="path4720"
       clip-path="url(#clipPath5170)"
       transform="translate(0,-0.1591612)" />
    <path
       style="opacity:1;fill:#ffffff;fill-opacity:1;fill-rule:evenodd;stroke:#000000;stroke-width:4;stroke-linecap:round;stroke-linejoin:miter;stroke-miterlimit:4;stroke-dasharray:none;stroke-opacity:1;display:inline"
       d="M 274.31958,168.61555 C 256.10457,168.61555 241.32483,183.39528 241.32483,201.61029 C 241.32483,213.25024 247.37189,223.48666 256.48345,229.36157 C 235.16758,237.85657 217.90317,265.52691 216.94833,337.70314 C 216.94833,339.4905 218.75128,340.93847 221.00643,340.93847 L 327.63273,340.93847 C 329.88789,340.93847 331.70478,339.4905 331.70478,337.70314 C 331.70478,274.34931 313.18564,240.8158 291.02613,230.07278 C 300.77373,224.33594 307.32827,213.73137 307.32827,201.61029 C 307.32827,183.39528 292.53459,168.61555 274.31958,168.61555 z"
       id="path4730"
       clip-path="url(#clipPath5166)"
       transform="translate(0,-0.1591612)" />
    <path
       style="fill:#000000;fill-opacity:1;fill-rule:evenodd;stroke:#000000;stroke-width:4;stroke-linecap:round;stroke-linejoin:miter;stroke-miterlimit:4;stroke-dasharray:none;stroke-opacity:1;display:inline"
       d="M 184.37161,119.27781 C 155.72633,119.27781 132.48342,142.52072 132.48342,171.16599 C 132.48342,189.47121 141.99315,205.56919 156.32216,214.8082 C 122.8004,228.16761 95.650061,271.68252 94.148471,385.18827 C 94.148471,387.99912 96.983811,390.27622 100.53031,390.27621 L 268.21291,390.27621 C 271.75942,390.27621 274.6167,387.99912 274.61669,385.18827 C 274.61669,285.55681 245.49313,232.82135 210.64466,215.92666 C 225.97392,206.90481 236.28172,190.22785 236.28172,171.16599 C 236.28172,142.52072 213.01688,119.27781 184.37161,119.27781 z"
       id="path4728"
       clip-path="url(#clipPath5162)"
       transform="translate(0,0.2408388)" />
    <path
       sodipodi:type="arc"
       style="opacity:1;fill:url(#linearGradient4919);fill-opacity:1;fill-rule:evenodd;stroke:none;stroke-width:4;stroke-linecap:round;stroke-linejoin:miter;stroke-miterlimit:4;stroke-dasharray:none;stroke-opacity:1"
       id="path4911"
       sodipodi:cx="190.24971"
       sodipodi:cy="166.31102"
       sodipodi:rx="48.29739"
       sodipodi:ry="48.29739"
       d="M 238.5471,166.31102 A 48.29739,48.29739 0 1 1 141.95232,166.31102 A 48.29739,48.29739 0 1 1 238.5471,166.31102 z"
       transform="translate(-5.8796885,5.0397349)"
       clip-path="url(#clipPath5158)" />
    <path
       style="fill:url(#linearGradient5151);fill-opacity:1;fill-rule:evenodd;stroke:none;stroke-width:4;stroke-linecap:round;stroke-linejoin:miter;stroke-miterlimit:4;stroke-dasharray:none;stroke-opacity:1;display:inline"
       d="M 165.5625,219.0625 C 157.91581,218.01496 150.93439,220.85679 145.03125,225.5625 C 121.09825,243.34909 111.51035,274.13332 105.75633,302.27211 C 100.3841,329.61191 98.129413,357.90223 98.59375,385.5625 C 103.30451,387.85919 109.55774,385.15388 114.875,386.27644 C 166.52235,386.02606 218.32378,386.80041 269.875,385.875 C 272.48172,382.70176 269.4034,377.77962 270.4675,373.90678 C 269.03741,329.69974 263.38356,283.27666 238.25,245.8125 C 230.36142,235.02973 220.75627,224.01846 207.75,219.90625 C 193.68354,219.86228 179.6306,218.92317 165.5625,219.0625 z"
       id="path5135"
       clip-path="url(#clipPath5154)"
       transform="translate(0,9.9999983e-2)" />
  </g>
  <g
     inkscape:groupmode="layer"
     id="layer4"
     inkscape:label="Stars"
     sodipodi:insensitive="true"
     style="display:inline">
    <path
       sodipodi:type="arc"
       style="opacity:1;fill:#ffffff;fill-opacity:1;fill-rule:evenodd;stroke:none;stroke-width:4;stroke-linecap:round;stroke-linejoin:miter;stroke-miterlimit:4;stroke-dasharray:none;stroke-opacity:1"
       id="path5069"
       sodipodi:cx="109.1941"
       sodipodi:cy="97.854713"
       sodipodi:rx="16.799091"
       sodipodi:ry="16.799091"
       d="M 125.99319,97.854713 A 16.799091,16.799091 0 1 1 92.395008,97.854713 A 16.799091,16.799091 0 1 1 125.99319,97.854713 z"
       transform="translate(4.1997729,0)" />
    <path
       sodipodi:type="arc"
       style="opacity:1;fill:#ffffff;fill-opacity:1;fill-rule:evenodd;stroke:none;stroke-width:4;stroke-linecap:round;stroke-linejoin:miter;stroke-miterlimit:4;stroke-dasharray:none;stroke-opacity:1"
       id="path5071"
       sodipodi:cx="109.1941"
       sodipodi:cy="97.854713"
       sodipodi:rx="16.799091"
       sodipodi:ry="16.799091"
       d="M 125.99319,97.854713 A 16.799091,16.799091 0 1 1 92.395008,97.854713 A 16.799091,16.799091 0 1 1 125.99319,97.854713 z"
       transform="matrix(0.4638329,0,0,0.4638329,185.37942,28.107798)" />
  </g>
</svg>
